<?xml version="1.0" encoding="UTF-8" standalone="no"?>
<svg
   xmlns:dc="http://purl.org/dc/elements/1.1/"
   xmlns:cc="http://creativecommons.org/ns#"
   xmlns:rdf="http://www.w3.org/1999/02/22-rdf-syntax-ns#"
   xmlns:svg="http://www.w3.org/2000/svg"
   xmlns="http://www.w3.org/2000/svg"
   xmlns:sodipodi="http://sodipodi.sourceforge.net/DTD/sodipodi-0.dtd"
   xmlns:inkscape="http://www.inkscape.org/namespaces/inkscape"
   width="44.470989mm"
   height="41.230247mm"
   viewBox="0 0 44.47099 41.230248"
   version="1.1"
   id="svg8"
   inkscape:version="1.0.2 (1.0.2+r75+1)"
   sodipodi:docname="contato.svg">
  <defs
     id="defs2" />
  <sodipodi:namedview
     id="base"
     pagecolor="#ffffff"
     bordercolor="#666666"
     borderopacity="1.0"
     inkscape:pageopacity="0.0"
     inkscape:pageshadow="2"
     inkscape:zoom="2.6947669"
     inkscape:cx="78.171568"
     inkscape:cy="79.261322"
     inkscape:document-units="mm"
     inkscape:current-layer="layer1"
     inkscape:document-rotation="0"
     showgrid="false"
     inkscape:window-width="1366"
     inkscape:window-height="704"
     inkscape:window-x="0"
     inkscape:window-y="0"
     inkscape:window-maximized="0"
     inkscape:snap-global="true" />
  <metadata
     id="metadata5">
    <rdf:RDF>
      <cc:Work
         rdf:about="">
        <dc:format>image/svg+xml</dc:format>
        <dc:type
           rdf:resource="http://purl.org/dc/dcmitype/StillImage" />
        <dc:title />
      </cc:Work>
    </rdf:RDF>
  </metadata>
  <g
     inkscape:label="Layer 1"
     inkscape:groupmode="layer"
     id="layer1"
     transform="translate(864.92795,-92.219161)">
    <text
       xml:space="preserve"
       style="font-style:normal;font-weight:normal;font-size:10.5833px;line-height:1.25;font-family:sans-serif;fill:#000000;fill-opacity:1;stroke:none;stroke-width:0.264583"
       x="-854.35901"
       y="101.21579"
       id="text837"><tspan
         sodipodi:role="line"
         id="tspan835"
         x="-854.35901"
         y="101.21579"
         style="stroke-width:0.264583" /></text>
    <g
       id="g885"
       transform="matrix(1.1762981,0,0,1.1762981,150.30723,-21.212137)">
      <path
         id="path844"
         style="fill:#2de265;fill-opacity:1;stroke:#000000;stroke-width:3.77953;stroke-miterlimit:4;stroke-dasharray:none;stop-color:#000000"
         d="M 78.164062,17.880859 A 69.284572,57.741959 0 0 0 8.8808594,75.623047 69.284572,57.741959 0 0 0 78.164062,133.36523 69.284572,57.741959 0 0 0 99.304688,130.61133 L 145.4375,145.0918 126.96289,116.61328 A 69.284572,57.741959 0 0 0 147.44922,75.623047 69.284572,57.741959 0 0 0 78.164062,17.880859 Z"
         transform="matrix(0.26458333,0,0,0.26458333,-864.92617,92.199765)" />
      <g
         aria-label="Wh@ts App"
         transform="skewX(-9.5571499)"
         id="text854"
         style="font-style:normal;font-weight:normal;font-size:7.05556px;line-height:1.25;font-family:sans-serif;text-align:center;text-anchor:middle;fill:#000000;fill-opacity:1;stroke:none;stroke-width:0.264583">
        <path
           d="m -837.91785,106.34939 h 0.7028 l 1.08176,4.34771 1.07832,-4.34771 h 0.78204 l 1.08176,4.34771 1.07831,-4.34771 h 0.70625 l -1.29191,5.14353 h -0.87506 l -1.08521,-4.46485 -1.09554,4.46485 h -0.87505 z"
           style="font-size:7.05556px;text-align:center;text-anchor:middle;stroke-width:0.264583"
           id="path858" />
        <path
           d="m -827.3035,109.16403 v 2.32889 h -0.6339 v -2.30822 q 0,-0.54777 -0.2136,-0.81993 -0.21359,-0.27216 -0.64078,-0.27216 -0.51332,0 -0.8096,0.32728 -0.29628,0.32729 -0.29628,0.89228 v 2.18075 h -0.63734 v -5.36057 h 0.63734 v 2.10151 q 0.22738,-0.34796 0.53399,-0.52021 0.31006,-0.17226 0.71313,-0.17226 0.66491,0 1.00597,0.41341 0.34107,0.40997 0.34107,1.20923 z"
           style="font-size:7.05556px;text-align:center;text-anchor:middle;stroke-width:0.264583"
           id="path860" />
        <path
           d="m -824.07889,109.6429 q 0,0.49265 0.2446,0.77515 0.2446,0.27905 0.6718,0.27905 0.42374,0 0.6649,-0.2825 0.2446,-0.28249 0.2446,-0.7717 0,-0.48231 -0.24805,-0.76481 -0.24804,-0.28594 -0.66835,-0.28594 -0.41685,0 -0.6649,0.2825 -0.2446,0.28249 -0.2446,0.76825 z m 1.87758,1.03009 q -0.20671,0.26527 -0.47543,0.39274 -0.26527,0.12402 -0.62011,0.12402 -0.59256,0 -0.96463,-0.42719 -0.36863,-0.43064 -0.36863,-1.11966 0,-0.68902 0.37207,-1.11965 0.37207,-0.43064 0.96119,-0.43064 0.35484,0 0.62356,0.13091 0.26872,0.12747 0.47198,0.3893 v -0.45131 h 0.49265 v 2.53559 q 0.50298,-0.0758 0.78548,-0.4582 0.28594,-0.38585 0.28594,-0.99563 0,-0.36862 -0.11024,-0.69246 -0.1068,-0.32384 -0.32729,-0.59945 -0.35829,-0.45131 -0.87505,-0.68902 -0.51332,-0.24116 -1.11966,-0.24116 -0.42374,0 -0.81304,0.11369 -0.3893,0.11024 -0.72003,0.33073 -0.54088,0.3514 -0.84749,0.92329 -0.30317,0.56844 -0.30317,1.23334 0,0.54777 0.19637,1.02664 0.19982,0.47887 0.57533,0.84405 0.36174,0.35829 0.83716,0.54433 0.47543,0.18948 1.01631,0.18948 0.44441,0 0.87161,-0.15159 0.43063,-0.14814 0.78892,-0.42719 l 0.31006,0.38241 q -0.43064,0.33417 -0.94051,0.50987 -0.50643,0.17914 -1.03008,0.17914 -0.63735,0 -1.20234,-0.22737 -0.565,-0.22393 -1.00597,-0.65457 -0.44097,-0.43064 -0.6718,-0.99563 -0.23082,-0.56844 -0.23082,-1.21957 0,-0.62701 0.23427,-1.19545 0.23427,-0.56844 0.66835,-0.99908 0.44442,-0.43752 1.02664,-0.66834 0.58222,-0.23427 1.23334,-0.23427 0.73036,0 1.35393,0.29972 0.627,0.29973 1.05075,0.85094 0.25838,0.33762 0.39274,0.73381 0.13781,0.39618 0.13781,0.81993 0,0.90606 -0.54777,1.42972 -0.54778,0.52365 -1.5124,0.54432 z"
           style="font-size:7.05556px;text-align:center;text-anchor:middle;stroke-width:0.264583"
           id="path862" />
        <path
           d="m -818.35658,106.53887 v 1.09554 h 1.30569 v 0.49265 h -1.30569 v 2.09462 q 0,0.47198 0.12747,0.60634 0.13091,0.13435 0.5271,0.13435 h 0.65112 v 0.53055 h -0.65112 q -0.73381,0 -1.01286,-0.27216 -0.27906,-0.27561 -0.27906,-0.99908 v -2.09462 h -0.46508 v -0.49265 h 0.46508 v -1.09554 z"
           style="font-size:7.05556px;text-align:center;text-anchor:middle;stroke-width:0.264583"
           id="path864" />
        <path
           d="m -813.75738,107.7481 v 0.59945 q -0.26872,-0.13781 -0.5581,-0.20671 -0.28939,-0.0689 -0.59945,-0.0689 -0.47198,0 -0.70969,0.14469 -0.23427,0.1447 -0.23427,0.43408 0,0.22049 0.16881,0.34796 0.16881,0.12402 0.67869,0.23771 l 0.21704,0.0482 q 0.67524,0.1447 0.95773,0.40997 0.28595,0.26183 0.28595,0.7338 0,0.53744 -0.42719,0.85094 -0.42375,0.31351 -1.16789,0.31351 -0.31006,0 -0.64768,-0.062 -0.33418,-0.0586 -0.70625,-0.17915 v -0.65457 q 0.3514,0.18259 0.69247,0.27561 0.34106,0.0896 0.67524,0.0896 0.44786,0 0.68902,-0.15158 0.24115,-0.15503 0.24115,-0.43408 0,-0.25839 -0.1757,-0.39619 -0.17225,-0.1378 -0.76136,-0.26527 l -0.22049,-0.0517 q -0.58911,-0.12402 -0.85094,-0.37896 -0.26182,-0.25838 -0.26182,-0.70624 0,-0.54433 0.38585,-0.84061 0.38585,-0.29628 1.09554,-0.29628 0.3514,0 0.66146,0.0517 0.31005,0.0517 0.57188,0.15503 z"
           style="font-size:7.05556px;text-align:center;text-anchor:middle;stroke-width:0.264583"
           id="path866" />
        <path
           d="m -830.15949,115.85441 -0.94395,2.55971 h 1.89135 z m -0.39274,-0.68557 h 0.78893 l 1.96026,5.14353 h -0.72347 l -0.46853,-1.31947 h -2.31856 l -0.46853,1.31947 h -0.7338 z"
           style="font-size:7.05556px;text-align:center;text-anchor:middle;stroke-width:0.264583"
           id="path868" />
        <path
           d="m -826.46634,119.73359 v 2.04639 h -0.63735 v -5.32612 h 0.63735 v 0.58567 q 0.19981,-0.34451 0.50298,-0.50988 0.30662,-0.16881 0.73036,-0.16881 0.7028,0 1.14033,0.55811 0.44097,0.5581 0.44097,1.46761 0,0.90951 -0.44097,1.46761 -0.43753,0.55811 -1.14033,0.55811 -0.42374,0 -0.73036,-0.16537 -0.30317,-0.16881 -0.50298,-0.51332 z m 2.15663,-1.34703 q 0,-0.69935 -0.28939,-1.09554 -0.28594,-0.39963 -0.78893,-0.39963 -0.50298,0 -0.79237,0.39963 -0.28594,0.39619 -0.28594,1.09554 0,0.69936 0.28594,1.09899 0.28939,0.39618 0.79237,0.39618 0.50299,0 0.78893,-0.39618 0.28939,-0.39963 0.28939,-1.09899 z"
           style="font-size:7.05556px;text-align:center;text-anchor:middle;stroke-width:0.264583"
           id="path870" />
        <path
           d="m -821.98772,119.73359 v 2.04639 h -0.63734 v -5.32612 h 0.63734 v 0.58567 q 0.19982,-0.34451 0.50299,-0.50988 0.30661,-0.16881 0.73036,-0.16881 0.7028,0 1.14033,0.55811 0.44097,0.5581 0.44097,1.46761 0,0.90951 -0.44097,1.46761 -0.43753,0.55811 -1.14033,0.55811 -0.42375,0 -0.73036,-0.16537 -0.30317,-0.16881 -0.50299,-0.51332 z m 2.15664,-1.34703 q 0,-0.69935 -0.28939,-1.09554 -0.28595,-0.39963 -0.78893,-0.39963 -0.50298,0 -0.79237,0.39963 -0.28595,0.39619 -0.28595,1.09554 0,0.69936 0.28595,1.09899 0.28939,0.39618 0.79237,0.39618 0.50298,0 0.78893,-0.39618 0.28939,-0.39963 0.28939,-1.09899 z"
           style="font-size:7.05556px;text-align:center;text-anchor:middle;stroke-width:0.264583"
           id="path872" />
      </g>
    </g>
  </g>
</svg>
