<?xml version="1.0" encoding="UTF-8" standalone="no"?>
<svg
   xmlns:dc="http://purl.org/dc/elements/1.1/"
   xmlns:cc="http://creativecommons.org/ns#"
   xmlns:rdf="http://www.w3.org/1999/02/22-rdf-syntax-ns#"
   xmlns:svg="http://www.w3.org/2000/svg"
   xmlns="http://www.w3.org/2000/svg"
   xmlns:sodipodi="http://sodipodi.sourceforge.net/DTD/sodipodi-0.dtd"
   xmlns:inkscape="http://www.inkscape.org/namespaces/inkscape"
   width="44.614552mm"
   height="44.614548mm"
   viewBox="0 0 44.614552 44.614548"
   version="1.1"
   id="svg8"
   inkscape:version="1.0.2 (1.0.2+r75+1)"
   sodipodi:docname="cursos.svg">
  <defs
     id="defs2" />
  <sodipodi:namedview
     id="base"
     pagecolor="#ffffff"
     bordercolor="#666666"
     borderopacity="1.0"
     inkscape:pageopacity="0.0"
     inkscape:pageshadow="2"
     inkscape:zoom="1.8829069"
     inkscape:cx="64.255143"
     inkscape:cy="75.327305"
     inkscape:document-units="mm"
     inkscape:current-layer="layer1"
     inkscape:document-rotation="0"
     showgrid="false"
     inkscape:window-width="1366"
     inkscape:window-height="704"
     inkscape:window-x="0"
     inkscape:window-y="0"
     inkscape:window-maximized="0"
     inkscape:snap-global="false" />
  <metadata
     id="metadata5">
    <rdf:RDF>
      <cc:Work
         rdf:about="">
        <dc:format>image/svg+xml</dc:format>
        <dc:type
           rdf:resource="http://purl.org/dc/dcmitype/StillImage" />
        <dc:title />
      </cc:Work>
    </rdf:RDF>
  </metadata>
  <g
     inkscape:label="Layer 1"
     inkscape:groupmode="layer"
     id="layer1"
     transform="translate(864.92617,-92.199765)">
    <g
       id="g955"
       transform="matrix(1.1865265,0,0,1.6814297,155.16705,-69.030279)">
      <path
         style="fill:#83aae9;fill-opacity:1;stroke:#000000;stroke-width:0.264583px;stroke-linecap:butt;stroke-linejoin:miter;stroke-opacity:1"
         d="m -859.62318,109.54598 3.38512,8.80123 c 6.36843,-2.19564 10.43625,-2.32637 16.83513,0.0354 3.9335,-4.50196 11.69649,-8.08517 17.19432,-6.4338 v -2.64585 l -9.56339,-6.69006 c -3.88691,-0.57258 -9.22694,2.94342 -11.90481,6.41054 -4.91975,-1.30073 -15.94637,-2.12331 -15.94637,-2.12331 0,0 0.12393,2.56036 0,2.64585 z"
         id="path843"
         sodipodi:nodetypes="ccccccccc" />
      <path
         style="fill:#d4e2f7;fill-opacity:1;stroke:#000000;stroke-width:0.264583px;stroke-linecap:butt;stroke-linejoin:miter;stroke-opacity:1"
         d="m -859.62318,106.90013 3.38512,8.80123 c 6.36843,-2.19564 10.43625,-2.32637 16.83513,0.0354 3.9335,-4.50196 11.69649,-8.08517 17.19432,-6.4338 l -9.56339,-9.335902 c -3.88691,-0.572582 -9.22694,2.943412 -11.90481,6.410532 -5.02169,-1.32768 -9.84124,-3.68885 -15.94637,0.52254 z"
         id="path835"
         sodipodi:nodetypes="ccccccc" />
      <path
         style="fill:none;stroke:#000000;stroke-width:0.264583px;stroke-linecap:butt;stroke-linejoin:miter;stroke-opacity:1"
         d="m -839.40293,115.73676 c 0,2.64585 0,2.64585 0,2.64585"
         id="path845" />
      <path
         style="fill:none;stroke:#000000;stroke-width:0.264583px;stroke-linecap:butt;stroke-linejoin:miter;stroke-opacity:1"
         d="m -856.23806,115.70136 v 2.64585"
         id="path847" />
      <path
         style="fill:none;stroke:#000000;stroke-width:0.264583px;stroke-linecap:butt;stroke-linejoin:miter;stroke-opacity:1"
         d="m -822.20861,109.30296 v 2.64585"
         id="path849" />
      <path
         style="fill:none;stroke:#000000;stroke-width:0.264583px;stroke-linecap:butt;stroke-linejoin:miter;stroke-opacity:1"
         d="m -859.62318,106.90013 v 2.64585"
         id="path851" />
      <path
         style="fill:none;stroke:#000000;stroke-width:0.264583px;stroke-linecap:butt;stroke-linejoin:miter;stroke-opacity:1"
         d="m -843.67681,106.37759 4.27388,9.35917"
         id="path841" />
      <path
         id="path883"
         style="fill:none;fill-opacity:1;stroke:#000000;stroke-width:0.264999;stroke-linecap:butt;stroke-linejoin:miter;stroke-miterlimit:4;stroke-dasharray:none;stroke-opacity:1"
         d="m -838.72152,116.00705 c 4.09287,-4.16064 8.04712,-6.40141 15.65627,-6.28361"
         sodipodi:nodetypes="cc" />
      <path
         id="path889"
         style="fill:none;fill-opacity:1;stroke:#000000;stroke-width:0.264999;stroke-linecap:butt;stroke-linejoin:miter;stroke-miterlimit:4;stroke-dasharray:none;stroke-opacity:1"
         d="m -855.45796,116.16808 c 6.08829,-2.09906 8.93519,-2.03967 14.8651,0.009"
         sodipodi:nodetypes="cc" />
      <path
         id="path896"
         style="fill:none;fill-opacity:1;stroke:#000000;stroke-width:0.264999;stroke-linecap:butt;stroke-linejoin:miter;stroke-miterlimit:4;stroke-dasharray:none;stroke-opacity:1"
         d="m -855.93349,117.20777 c 6.08829,-2.09906 9.56209,-1.84331 15.492,0.20572"
         sodipodi:nodetypes="cc" />
      <path
         id="path898"
         style="fill:none;fill-opacity:1;stroke:#000000;stroke-width:0.264999;stroke-linecap:butt;stroke-linejoin:miter;stroke-miterlimit:4;stroke-dasharray:none;stroke-opacity:1"
         d="m -854.4514,116.24725 c 4.18286,-1.32141 8.4177,-1.54523 12.39626,0.18468"
         sodipodi:nodetypes="cc" />
      <path
         id="path900"
         style="fill:none;fill-opacity:1;stroke:#000000;stroke-width:0.264999;stroke-linecap:butt;stroke-linejoin:miter;stroke-miterlimit:4;stroke-dasharray:none;stroke-opacity:1"
         d="m -837.50834,115.89776 c 5.19945,-3.89146 7.68659,-4.91325 13.44527,-4.98286"
         sodipodi:nodetypes="cc" />
      <path
         style="fill:none;stroke:#000000;stroke-width:0.264583px;stroke-linecap:butt;stroke-linejoin:miter;stroke-opacity:1"
         d="m -836.29196,114.47073 c 2.93304,-2.68438 6.24261,-3.51145 9.60729,-4.0667"
         id="path911"
         sodipodi:nodetypes="cc" />
      <path
         style="fill:none;stroke:#000000;stroke-width:0.264583px;stroke-linecap:butt;stroke-linejoin:miter;stroke-opacity:1"
         d="m -859.19251,109.32311 c 2.2076,6.09991 2.2076,6.09991 2.2076,6.09991"
         id="path915" />
      <path
         style="fill:#a3c0ef;fill-opacity:1;stroke:#000000;stroke-width:0.264583px;stroke-linecap:butt;stroke-linejoin:miter;stroke-opacity:1"
         d="m -857.38762,107.34018 0.92291,2.4369 c 3.81737,-2.63112 8.11969,-0.71276 12.24111,-0.49148 l -0.67625,-1.9989 c -4.36475,-0.90308 -8.83574,-2.29016 -12.48777,0.0535 z"
         id="path917"
         sodipodi:nodetypes="ccccc" />
      <path
         style="fill:none;stroke:#000000;stroke-width:0.264583px;stroke-linecap:butt;stroke-linejoin:miter;stroke-opacity:1"
         d="m -855.725,111.00583 c 4.56489,-1.83282 8.28494,-0.47821 11.91796,-0.30563"
         id="path919"
         sodipodi:nodetypes="cc" />
      <path
         style="fill:none;stroke:#000000;stroke-width:0.264583px;stroke-linecap:butt;stroke-linejoin:miter;stroke-opacity:1"
         d="m -855.10031,112.46383 c 4.25292,-1.96158 8.28023,-0.76907 11.78374,-0.43705"
         id="path921"
         sodipodi:nodetypes="cc" />
      <path
         style="fill:none;stroke:#000000;stroke-width:0.264583px;stroke-linecap:butt;stroke-linejoin:miter;stroke-opacity:1"
         d="m -854.74824,113.75218 c 4.08746,-1.81692 8.23653,-1.05022 12.03481,-0.49295"
         id="path923"
         sodipodi:nodetypes="cc" />
      <path
         style="fill:none;stroke:#000000;stroke-width:0.264583px;stroke-linecap:butt;stroke-linejoin:miter;stroke-opacity:1"
         d="m -841.74329,107.15466 c 2.52783,-2.01016 4.38921,-4.28616 9.51625,-5.25952"
         id="path925"
         sodipodi:nodetypes="cc" />
      <path
         style="fill:none;stroke:#000000;stroke-width:0.264583px;stroke-linecap:butt;stroke-linejoin:miter;stroke-opacity:1"
         d="m -840.99402,108.45499 c 3.15774,-2.3869 6.45164,-4.44568 10.20175,-5.40503"
         id="path927"
         sodipodi:nodetypes="cc" />
      <path
         style="fill:none;stroke:#000000;stroke-width:0.264583px;stroke-linecap:butt;stroke-linejoin:miter;stroke-opacity:1"
         d="m -840.36394,109.78443 c 3.34389,-2.0742 6.68768,-4.14853 10.70627,-5.34175"
         id="path929"
         sodipodi:nodetypes="cc" />
      <path
         style="fill:none;stroke:#000000;stroke-width:0.264583px;stroke-linecap:butt;stroke-linejoin:miter;stroke-opacity:1"
         d="m -839.64653,111.63678 c 3.51317,-2.36041 7.08599,-4.63832 11.53949,-5.69812"
         id="path931"
         sodipodi:nodetypes="cc" />
    </g>
  </g>
</svg>
