<?xml version="1.0" encoding="UTF-8" standalone="no"?>
<svg
   xmlns:dc="http://purl.org/dc/elements/1.1/"
   xmlns:cc="http://creativecommons.org/ns#"
   xmlns:rdf="http://www.w3.org/1999/02/22-rdf-syntax-ns#"
   xmlns:svg="http://www.w3.org/2000/svg"
   xmlns="http://www.w3.org/2000/svg"
   xmlns:sodipodi="http://sodipodi.sourceforge.net/DTD/sodipodi-0.dtd"
   xmlns:inkscape="http://www.inkscape.org/namespaces/inkscape"
   width="37.905712mm"
   height="44.839767mm"
   viewBox="0 0 37.905713 44.839768"
   version="1.1"
   id="svg8"
   inkscape:version="1.0.2 (1.0.2+r75+1)"
   sodipodi:docname="financeiro.svg">
  <defs
     id="defs2" />
  <sodipodi:namedview
     id="base"
     pagecolor="#ffffff"
     bordercolor="#666666"
     borderopacity="1.0"
     inkscape:pageopacity="0.0"
     inkscape:pageshadow="2"
     inkscape:zoom="3.0126571"
     inkscape:cx="84.219987"
     inkscape:cy="84.379733"
     inkscape:document-units="mm"
     inkscape:current-layer="layer1"
     inkscape:document-rotation="0"
     showgrid="false"
     inkscape:window-width="1366"
     inkscape:window-height="703"
     inkscape:window-x="0"
     inkscape:window-y="0"
     inkscape:window-maximized="1" />
  <metadata
     id="metadata5">
    <rdf:RDF>
      <cc:Work
         rdf:about="">
        <dc:format>image/svg+xml</dc:format>
        <dc:type
           rdf:resource="http://purl.org/dc/dcmitype/StillImage" />
        <dc:title />
      </cc:Work>
    </rdf:RDF>
  </metadata>
  <g
     inkscape:label="Layer 1"
     inkscape:groupmode="layer"
     id="layer1"
     transform="translate(864.9021,-92.181568)">
    <g
       aria-label="$"
       id="text14"
       style="font-style:normal;font-weight:normal;font-size:10.5833px;line-height:1.25;font-family:sans-serif;fill:#7a2493;fill-opacity:1;stroke:#000000;stroke-width:0.18055905;stroke-miterlimit:4;stroke-dasharray:none;stroke-opacity:1"
       transform="matrix(6.8166111,0,-1.0148805,4.4997972,5038.9951,-333.41362)">
      <path
         d="m -848.07561,104.34617 c -0.19702,0.26708 -0.32023,0.2653 -0.51677,0 -0.19654,-0.2653 -0.005,-1.55545 -0.005,-1.55545 -0.36173,-0.007 -0.72784,0.079 -1.08521,0.003 -0.37742,-0.0803 -0.86483,-0.0918 -1.09036,-0.47876 -0.22552,-0.38696 -0.3099,-1.16434 0,-1.43962 0.30991,-0.27528 0.69881,0.47384 1.06453,0.62862 0.36572,0.15478 0.7338,0.29446 1.1162,0.2979 v -2.101723 c -0.76136,-0.124023 -1.31602,-0.334173 -1.66397,-0.63045 -0.34451,-0.296277 -0.51676,-0.702797 -0.51676,-1.21956 0,-0.561549 0.18776,-1.004242 0.56327,-1.32808 0.37551,-0.323838 0.91467,-0.509873 1.61746,-0.558104 0,0 -0.16646,-0.988706 0,-1.214392 0.16646,-0.225686 0.35165,-0.223859 0.51677,0 0.16512,0.223859 0,1.198889 0,1.198889 0.32039,0.01378 0.63045,0.04823 0.93017,0.103353 0.29972,0.05167 0.73553,0.17053 0.8785,0.21704 0.14298,0.04651 0.14298,0.976682 0,0.904335 -0.14297,-0.07235 -0.5805,-0.256659 -0.88367,-0.335896 -0.29972,-0.07924 -0.60805,-0.125745 -0.925,-0.139526 v 2.206577 c 0.78203,0.120578 1.35736,0.335896 1.72598,0.645953 0.36863,0.310056 0.55294,0.733804 0.55294,1.271234 0,0.58222 -0.19637,1.04214 -0.58911,1.37976 -0.38929,0.33417 -0.95256,0.5271 -1.68981,0.57877 0,0 0.19686,1.29871 -1.6e-4,1.56579 z m -0.51677,-5.534525 v -2.118727 c -0.39963,0.04479 -0.64401,0.119404 -0.91467,0.341064 -0.21004,0.172015 -0.5031,0.425468 -0.5031,0.728635 0,0.296277 0.28438,0.527098 0.47727,0.692462 0.19637,0.165364 0.50987,0.284219 0.9405,0.356566 z m 0.51677,0.992185 v 1.98286 c 0.43753,-0.0586 0.57077,-0.0417 0.79913,-0.24471 0.15848,-0.14091 0.3359,-0.31189 0.3359,-0.62194 0,-0.30317 -0.15983,-0.54532 -0.32039,-0.72347 -0.22303,-0.24747 -0.35645,-0.310058 -0.81464,-0.39274 z"
         style="fill:#7a2493;fill-opacity:1;stroke-width:0.18055905;stroke-miterlimit:4;stroke-dasharray:none;stroke:#000000;stroke-opacity:1"
         id="path16"
         sodipodi:nodetypes="czcazzzcccssczzcczzccccscczccasccccasacc" />
    </g>
  </g>
</svg>
